<svg xmlns="http://www.w3.org/2000/svg" viewBox="0 0 512 512" width="512" height="512" role="img" aria-label="Tarnoo">
  <defs>
    <linearGradient id="g" x1="0" y1="0" x2="0" y2="1">
      <stop offset="0" stop-color="#10b981"/>
      <stop offset="1" stop-color="#047857"/>
    </linearGradient>
    <clipPath id="t"><rect width="512" height="512" rx="116"/></clipPath>
  </defs>
  <g clip-path="url(#t)">
    <rect width="512" height="512" fill="url(#g)"/>
    <g transform="matrix(1 0 0 -1 0 624)" opacity="0.26">
      <path d="M236 312 L322 196 L404 312 Z" fill="#a7f3d0"/>
      <path d="M120 312 L206 150 L300 312 Z" fill="#ffffff"/>
    </g>
    <rect x="0" y="309" width="512" height="6" fill="#ffffff" opacity="0.35"/>
    <rect x="150" y="344" width="150" height="7" rx="3.5" fill="#ffffff" opacity="0.5"/>
    <rect x="118" y="372" width="86" height="7" rx="3.5" fill="#ffffff" opacity="0.32"/>
    <rect x="300" y="366" width="70" height="7" rx="3.5" fill="#ffffff" opacity="0.28"/>
    <path d="M236 312 L322 196 L404 312 Z" fill="#a7f3d0"/>
    <path d="M120 312 L206 150 L300 312 Z" fill="#ffffff"/>
    <path d="M206 150 L232 200 L206 188 L182 214 Z" fill="#065f46" opacity="0.14"/>
  </g>
</svg>
